<?xml version="1.0" encoding="utf-8"?>
<!-- Generator: Adobe Illustrator 23.0.1, SVG Export Plug-In . SVG Version: 6.00 Build 0)  -->
<svg version="1.1" id="Capa_1" xmlns="http://www.w3.org/2000/svg" xmlns:xlink="http://www.w3.org/1999/xlink" x="0px" y="0px"
	 viewBox="0 0 477.5 477.5" style="enable-background:new 0 0 477.5 477.5;" xml:space="preserve">
<path d="M438.5,58.6c-24.7-26.5-59.3-41.7-95.6-41.7c-36.3,0-70.9,15.1-95.7,41.7l-8.4,8.9l-8.4-8.9C181.3,5.8,98.7,2.7,45.8,51.8
	c-2.3,2.2-4.6,4.4-6.8,6.8c-52.1,56.2-52.1,143,0,199.1l187.4,197.6c6.5,6.8,17.3,7.1,24.1,0.7c0.2-0.2,0.4-0.4,0.7-0.7l187.3-197.6
	C490.6,201.6,490.6,114.8,438.5,58.6z"/>
</svg>
